<svg width="176" height="56" viewBox="0 0 176 56" fill="none" xmlns="http://www.w3.org/2000/svg">
<rect width="42.0708" height="56" fill="#FBB731"/>
<path fill-rule="evenodd" clip-rule="evenodd" d="M40.5683 7H43.5733C54.3558 7.01239 63.0937 15.7356 63.1062 26.5C63.1062 27.3284 62.4334 28 61.6036 28H22.538C21.7081 28 21.0354 27.3284 21.0354 26.5C21.0478 15.7356 29.7857 7.01239 40.5683 7ZM40.5681 10C32.0261 10.0102 24.8951 16.5086 24.108 25H60.0334C59.2463 16.5085 52.1153 10.0102 43.5732 10H40.5681Z" fill="#443737"/>
<path fill-rule="evenodd" clip-rule="evenodd" d="M55.5935 37.1084H61.6037C62.4335 37.1084 63.1062 37.7739 63.1062 38.5949V41.5677C63.1012 45.6704 59.7406 48.9951 55.5935 49H28.548C24.4009 48.9951 21.0403 45.6704 21.0354 41.5677V38.5949C21.0354 37.7739 21.7081 37.1084 22.538 37.1084H43.5732C43.8984 37.1084 44.2147 37.2127 44.4748 37.4057L49.5834 41.1961L54.692 37.4057C54.9521 37.2127 55.2684 37.1084 55.5935 37.1084ZM55.5935 46.0271C58.083 46.0271 60.1011 44.0306 60.1011 41.5678V40.0813H56.0939L50.4849 44.2434C49.9507 44.6398 49.2161 44.6398 48.6819 44.2434L43.0729 40.0813H24.0404V41.5678C24.0404 44.0306 26.0585 46.0271 28.548 46.0271H55.5935Z" fill="#443737"/>
<path d="M61.6036 31.0361H22.538C21.7081 31.0361 21.0354 31.7158 21.0354 32.5542C21.0354 33.3925 21.7081 34.0723 22.538 34.0723H61.6036C62.4334 34.0723 63.1062 33.3926 63.1062 32.5542C63.1062 31.7157 62.4334 31.0361 61.6036 31.0361Z" fill="#443737"/>
<path d="M34.4676 15.8555C33.6278 15.8555 32.947 16.5351 32.947 17.3735V18.8916C32.947 19.73 33.6278 20.4097 34.4676 20.4097C35.3074 20.4097 35.9882 19.73 35.9882 18.8916V17.3735C35.9882 16.5351 35.3074 15.8555 34.4676 15.8555Z" fill="#443737"/>
<path d="M42.0707 15.8555C41.2309 15.8555 40.5501 16.5351 40.5501 17.3735V18.8916C40.5501 19.73 41.2309 20.4097 42.0707 20.4097C42.9106 20.4097 43.5914 19.7299 43.5914 18.8915V17.3735C43.5914 16.5351 42.9106 15.8555 42.0707 15.8555Z" fill="#443737"/>
<path d="M49.6739 15.8555C48.8341 15.8555 48.1533 16.5351 48.1533 17.3735V18.8916C48.1533 19.73 48.8341 20.4097 49.6739 20.4097C50.5137 20.4097 51.1945 19.73 51.1945 18.8916V17.3735C51.1944 16.5351 50.5136 15.8555 49.6739 15.8555Z" fill="#443737"/>
<path d="M74.8298 36.7276V19.2724H82.5956C84.4068 19.2724 85.8012 19.6768 86.779 20.4856C87.7727 21.2944 88.2696 22.4003 88.2696 23.8033C88.2696 24.7276 88.0452 25.5282 87.5964 26.205C87.1476 26.8652 86.5225 27.3604 85.7211 27.6905C86.6828 27.9711 87.4201 28.4663 87.933 29.1761C88.4619 29.8858 88.7264 30.7607 88.7264 31.8006C88.7264 33.3521 88.1975 34.5653 87.1396 35.4402C86.0978 36.2985 84.6712 36.7276 82.86 36.7276H74.8298ZM78.3881 26.4525H81.9464C83.7736 26.4525 84.6873 25.7263 84.6873 24.2737C84.6873 22.8377 83.7736 22.1197 81.9464 22.1197H78.3881V26.4525ZM78.3881 33.8803H82.3551C83.3168 33.8803 84.0221 33.6905 84.4709 33.3109C84.9197 32.9312 85.1441 32.3535 85.1441 31.5777C85.1441 30.8184 84.9197 30.249 84.4709 29.8693C84.0221 29.4897 83.3168 29.2999 82.3551 29.2999H78.3881V33.8803Z" fill="#443737"/>
<path d="M98.8077 37C96.4035 37 94.5682 36.3645 93.302 35.0935C92.0518 33.8226 91.4267 31.9326 91.4267 29.4237V19.2724H95.1533V29.4484C95.1533 30.8679 95.4658 31.9409 96.0909 32.6671C96.716 33.3769 97.6216 33.7318 98.8077 33.7318C101.228 33.7318 102.438 32.304 102.438 29.4484V19.2724H106.117V29.4237C106.117 31.9326 105.5 33.8226 104.265 35.0935C103.031 36.3645 101.212 37 98.8077 37Z" fill="#443737"/>
<path d="M109.414 36.7276V19.2724H117.156C119.047 19.2724 120.506 19.7428 121.532 20.6836C122.558 21.6245 123.071 22.9367 123.071 24.6204C123.071 25.9243 122.742 27.0138 122.085 27.8886C121.444 28.7469 120.522 29.3329 119.32 29.6465C120.169 29.9106 120.867 30.5461 121.412 31.553L124.152 36.7276H120.041L117.108 31.1568C116.868 30.7111 116.571 30.4058 116.218 30.2407C115.866 30.0591 115.449 29.9684 114.968 29.9684H113.141V36.7276H109.414ZM113.141 27.1953H116.483C118.486 27.1953 119.488 26.37 119.488 24.7194C119.488 23.0853 118.486 22.2682 116.483 22.2682H113.141V27.1953Z" fill="#443737"/>
<path d="M134.428 37C132.521 37 130.902 36.6286 129.572 35.8858C128.257 35.1431 127.256 34.1032 126.567 32.7662C125.877 31.4292 125.533 29.8611 125.533 28.0619C125.533 26.2132 125.885 24.6121 126.591 23.2586C127.312 21.9051 128.346 20.8569 129.692 20.1142C131.038 19.3714 132.657 19 134.549 19C135.735 19 136.857 19.1733 137.915 19.5199C138.988 19.8666 139.862 20.3287 140.535 20.9065L139.333 23.9023C138.596 23.3411 137.842 22.945 137.073 22.7139C136.304 22.4663 135.47 22.3425 134.573 22.3425C132.858 22.3425 131.567 22.8377 130.702 23.8281C129.852 24.8019 129.428 26.2132 129.428 28.0619C129.428 29.9271 129.86 31.3384 130.726 32.2957C131.607 33.2531 132.906 33.7318 134.621 33.7318C135.534 33.7318 136.496 33.5832 137.506 33.2861V29.8693H133.851V27.0963H140.583V35.663C139.75 36.0922 138.788 36.4223 137.698 36.6534C136.608 36.8845 135.518 37 134.428 37Z" fill="#443737"/>
<path d="M151.744 37C150.077 37 148.61 36.6286 147.344 35.8858C146.094 35.1265 145.116 34.0784 144.411 32.7414C143.721 31.3879 143.377 29.8033 143.377 27.9876C143.377 26.1719 143.721 24.5956 144.411 23.2586C145.116 21.9051 146.094 20.8569 147.344 20.1142C148.594 19.3714 150.061 19 151.744 19C153.426 19 154.893 19.3714 156.143 20.1142C157.41 20.8569 158.387 21.9051 159.076 23.2586C159.782 24.5956 160.134 26.1637 160.134 27.9629C160.134 29.7785 159.782 31.3631 159.076 32.7166C158.387 34.0702 157.41 35.1265 156.143 35.8858C154.893 36.6286 153.426 37 151.744 37ZM151.744 33.7318C153.154 33.7318 154.252 33.2283 155.037 32.2215C155.839 31.1981 156.239 29.7868 156.239 27.9876C156.239 26.1719 155.847 24.7689 155.061 23.7785C154.276 22.7717 153.17 22.2682 151.744 22.2682C150.349 22.2682 149.251 22.7717 148.45 23.7785C147.664 24.7689 147.272 26.1719 147.272 27.9876C147.272 29.7868 147.664 31.1981 148.45 32.2215C149.251 33.2283 150.349 33.7318 151.744 33.7318Z" fill="#443737"/>
<path d="M169.076 37C167.745 37 166.487 36.8267 165.301 36.4801C164.131 36.1334 163.153 35.663 162.368 35.0688L163.45 32.0481C164.203 32.5928 165.061 33.022 166.022 33.3356C167 33.6492 168.018 33.8061 169.076 33.8061C170.23 33.8061 171.055 33.6245 171.552 33.2613C172.065 32.8817 172.321 32.4113 172.321 31.8501C172.321 31.3714 172.145 30.9917 171.793 30.7111C171.44 30.4305 170.823 30.1912 169.941 29.9931L167.224 29.3989C164.195 28.7387 162.68 27.121 162.68 24.5461C162.68 23.4402 162.969 22.4746 163.546 21.6492C164.123 20.8074 164.924 20.1554 165.95 19.6933C166.992 19.2311 168.194 19 169.557 19C170.727 19 171.825 19.1733 172.85 19.5199C173.876 19.8666 174.726 20.3535 175.399 20.9807L174.317 23.8033C173.003 22.7304 171.408 22.1939 169.533 22.1939C168.523 22.1939 167.737 22.4003 167.176 22.8129C166.631 23.2091 166.359 23.729 166.359 24.3728C166.359 24.8514 166.527 25.2393 166.864 25.5365C167.2 25.8336 167.785 26.0729 168.619 26.2545L171.336 26.8487C174.445 27.542 176 29.11 176 31.553C176 32.6424 175.711 33.5997 175.134 34.425C174.573 35.2338 173.772 35.8693 172.73 36.3315C171.704 36.7772 170.486 37 169.076 37Z" fill="#443737"/>
</svg>
